<svg width="16" height="16" viewBox="0 0 16 16" fill="none" xmlns="http://www.w3.org/2000/svg">
<rect width="16" height="16" rx="8" fill="#393C34"/>
<path d="M5.2175 5.6245L5.319 3.58C5.609 3.41567 5.9715 3.28033 6.4065 3.174C6.85117 3.058 7.33933 3 7.871 3C8.99233 3 9.80433 3.23683 10.307 3.7105C10.8097 4.18417 11.061 4.77867 11.061 5.494C11.061 6.161 10.7613 6.80867 10.162 7.437C9.56267 8.06533 8.70233 8.79033 7.581 9.612C7.36833 9.76667 7.12183 9.95517 6.8415 10.1775C6.57083 10.3902 6.305 10.6077 6.044 10.83H11.322V12.425H5V11.2505C5.71533 10.5545 6.3775 9.89233 6.9865 9.264C7.69217 8.539 8.21417 7.89617 8.5525 7.3355C8.89083 6.76517 9.06 6.16583 9.06 5.5375C9.06 4.8995 8.93917 4.38717 8.6975 4.0005C8.45583 3.61383 8.103 3.4205 7.639 3.4205C7.32967 3.4205 7.05417 3.493 6.8125 3.638C6.5805 3.783 6.38717 4.0295 6.2325 4.3775L5.667 5.6245H5.2175Z" fill="#F2EFE2"/>
</svg>
