<svg width="16" height="16" viewBox="0 0 16 16" fill="none" xmlns="http://www.w3.org/2000/svg">
<rect width="16" height="16" rx="8" fill="#393C34"/>
<path d="M7.7695 12.628C7.15083 12.628 6.63367 12.5603 6.218 12.425C5.80233 12.2897 5.39633 12.1157 5 11.903L5.145 10.018H5.5655L6.073 11.149C6.40167 11.8643 6.943 12.222 7.697 12.222C8.15133 12.222 8.5235 12.0432 8.8135 11.6855C9.1035 11.3278 9.2485 10.7333 9.2485 9.902C9.2485 9.15767 9.118 8.626 8.857 8.307C8.596 7.988 8.18033 7.8285 7.61 7.8285H6.7545V7.3935H7.523C8.03533 7.3935 8.41717 7.24367 8.6685 6.944C8.91983 6.63467 9.0455 6.11267 9.0455 5.378C9.0455 4.682 8.9295 4.18417 8.6975 3.8845C8.4655 3.58483 8.17067 3.435 7.813 3.435C7.45533 3.435 7.16533 3.52683 6.943 3.7105C6.73033 3.89417 6.55633 4.14067 6.421 4.45L5.87 5.6245L5.435 5.61L5.58 3.493C5.88933 3.348 6.23733 3.232 6.624 3.145C7.01067 3.04833 7.44083 3 7.9145 3C8.91017 3 9.669 3.2175 10.191 3.6525C10.713 4.0875 10.974 4.6385 10.974 5.3055C10.974 5.77917 10.7807 6.22867 10.394 6.654C10.017 7.07933 9.42733 7.38383 8.625 7.5675C9.54333 7.6545 10.2103 7.92033 10.626 8.365C11.0513 8.8 11.264 9.32683 11.264 9.9455C11.264 10.4578 11.1238 10.917 10.8435 11.323C10.5632 11.729 10.162 12.048 9.64 12.28C9.118 12.512 8.4945 12.628 7.7695 12.628Z" fill="#F2EFE2"/>
</svg>
