<svg width="147" height="32" viewBox="0 0 147 32" fill="none" xmlns="http://www.w3.org/2000/svg">
<g clip-path="url(#clip0_379_987)">
<path d="M0 21.7815H0.427753L1.1882 20.2606C2.66157 17.3377 3.92107 15.793 6.345 15.793H7.77085V28.0552C7.77085 29.8138 7.46191 30.5267 5.25186 30.9307L3.99236 31.1683V31.5961H16.6348V31.1683L15.3753 30.9307C13.1653 30.5267 12.8564 29.8138 12.8564 28.0552V15.793H14.3535C16.7774 15.793 18.0369 17.3377 19.5103 20.2606L20.2707 21.7815H20.6985V15.2227H0V21.7815Z" fill="#393C34"/>
<path d="M41.2069 27.0334C40.2801 29.3385 38.474 30.9782 35.6461 30.9782H31.0596V23.3024H32.2716C34.3153 23.3024 35.4797 23.9203 36.0501 25.6313L36.5491 27.1522H36.9293V18.8823H36.5491L36.0501 20.427C35.5035 22.0905 34.3153 22.7321 32.2716 22.7321H31.0596V15.8405H36.1451C38.6879 15.8405 40.6365 17.504 41.3495 19.8804L41.6346 20.831H42.0624V15.2227H22.4808V15.6504L23.5027 15.888C25.689 16.3871 26.0692 17.005 26.0692 18.7635V28.0552C26.0692 29.8138 25.689 30.4317 23.5027 30.9307L22.4808 31.1683V31.5961H42.2287V25.5125H41.801L41.2069 27.0334Z" fill="#393C34"/>
<path d="M57.5294 15.6504L59.0265 16.0306C60.8564 16.5059 61.902 17.6941 61.902 20.0468V24.8946L51.6597 15.2227H43.8175V15.6504L44.6968 15.888C45.9801 16.2445 46.8118 17.1951 47.7148 18.0981L47.9525 18.3357V26.772C47.9525 29.1246 46.9544 30.1227 45.2671 30.7881L44.2928 31.1683V31.5961H52.9905V31.1683L51.4933 30.7881C49.6635 30.3128 48.5703 29.1246 48.5703 26.772V18.9061L62.1159 31.7862H62.4961V20.0468C62.4961 17.6941 63.4942 16.696 65.1814 16.0306L66.1557 15.6504V15.2227H57.5294V15.6504Z" fill="#393C34"/>
<path d="M85.7136 27.0334C84.7868 29.3385 82.9807 30.9782 80.1528 30.9782H75.5663V23.3024H76.7783C78.822 23.3024 79.9864 23.9203 80.5568 25.6313L81.0558 27.1522H81.436V18.8823H81.0558L80.5568 20.427C80.0102 22.0905 78.822 22.7321 76.7783 22.7321H75.5663V15.8405H80.6518C83.1946 15.8405 85.1432 17.504 85.8561 19.8804L86.1413 20.831H86.5691V15.2227H66.9875V15.6504L68.0093 15.888C70.1956 16.3871 70.5759 17.005 70.5759 18.7635V28.0552C70.5759 29.8138 70.1956 30.4317 68.0093 30.9307L66.9875 31.1683V31.5961H86.7354V25.5125H86.3077L85.7136 27.0334Z" fill="#393C34"/>
<path d="M108.622 28.7682L106.46 24.9897C105.842 25.156 105.248 25.2273 104.654 25.2273C103.394 25.2273 102.182 24.8709 100.994 24.1104H101.398C103.655 24.1104 105.794 23.6827 107.315 22.946C108.693 22.2806 109.573 21.2587 109.573 19.5715C109.573 18.1219 108.788 16.9812 107.41 16.2445C105.889 15.4365 103.655 15.2227 101.398 15.2227H88.5652V15.6504L89.5871 15.888C91.7734 16.3871 92.1536 17.005 92.1536 18.7635V28.0552C92.1536 29.8138 91.7734 30.4317 89.5871 30.9307L88.5652 31.1683V31.5961H100.732V31.1683L99.7106 30.9307C97.5243 30.4317 97.1441 29.8138 97.1441 28.0552V24.1104H100.305L104.582 31.5961H111.64V31.1683L111.236 31.0733C109.882 30.7643 109.406 30.1465 108.622 28.7682ZM100.21 23.5401H97.1441V15.793H100.21C102.919 15.793 104.463 16.8624 104.463 19.5715C104.463 22.2806 102.919 23.5401 100.21 23.5401Z" fill="#393C34"/>
<path d="M123.661 14.8662C117.697 14.8662 112.706 17.8605 112.706 23.3975C112.706 28.9345 117.72 32.0001 123.661 32.0001C129.602 32.0001 134.617 28.9821 134.617 23.3975C134.617 17.813 129.626 14.8662 123.661 14.8662ZM123.661 31.4298C120.429 31.4298 117.982 28.9821 117.982 23.3975C117.982 17.813 120.429 15.4365 123.661 15.4365C126.893 15.4365 129.341 17.813 129.341 23.3975C129.341 28.9821 126.893 31.4298 123.661 31.4298Z" fill="#393C34"/>
<path d="M143.762 9.74368C143.599 9.71652 143.423 9.63504 143.423 9.63504C143.423 9.63504 143.559 9.58412 143.661 9.5298C143.868 9.41777 143.939 9.27519 143.939 9.27519C143.939 9.27519 143.79 9.34648 143.413 9.31253C143.195 9.29216 143.063 9.22427 143.063 9.22427C143.063 9.22427 143.27 9.06471 143.379 8.93231C143.443 8.85423 143.582 8.68448 143.582 8.68448C143.582 8.68448 143.253 8.71504 142.934 8.68448C142.836 8.67769 142.71 8.66411 142.476 8.62337C142.476 8.62337 142.771 8.96965 142.258 9.44154C141.871 9.7946 141.094 9.87947 141.094 9.87947C141.094 9.87947 141.535 9.67918 141.729 9.56375C142.024 9.38043 142.296 9.20729 142.17 8.78633C142.082 8.48079 141.427 8.35179 141.033 8.17186C140.656 8.00211 139.658 7.54381 138.052 6.24697C136.205 4.75323 135.523 2.74347 135.523 2.74347C135.523 2.74347 135.316 2.8555 135.126 3.16104C134.936 3.46657 134.932 3.78569 134.932 3.78569C134.932 3.78569 134.199 3.12369 133.581 2.5873C132.963 2.05091 131.548 0.0615234 131.548 0.0615234C131.548 0.0615234 131.232 0.550384 131.215 1.47718C131.195 2.40398 131.789 3.19159 131.789 3.19159L130.611 2.36664C130.611 2.36664 130.519 3.1203 130.957 3.98599C131.307 4.67854 132.132 5.23869 132.132 5.23869C132.132 5.23869 131.867 5.19796 131.554 5.14024C131.242 5.08253 130.774 4.94673 130.774 4.94673C130.774 4.94673 130.971 5.59515 131.493 6.07723C132.016 6.5593 132.828 6.76299 132.828 6.76299L131.711 7.021C131.711 7.021 132.176 7.59812 132.882 7.86292C133.588 8.12772 134.477 8.11754 134.477 8.11754L133.367 8.59622C133.367 8.59622 133.561 8.91533 134.162 9.11903C134.763 9.32272 135.598 9.23106 135.598 9.23106L134.63 9.67578C134.63 9.67578 135.119 9.99829 135.588 10.1545C136.379 10.4227 137.332 10.3853 137.332 10.3853C137.332 10.3853 137.013 10.5177 136.368 10.4939C135.856 10.4736 135.285 10.1884 134.678 10.3004C134.43 10.3446 133.693 10.4804 132.715 10.6739C131.738 10.8674 128.533 11.2578 128.533 11.2578C128.533 11.2578 128.828 11.6109 129.395 11.7093C129.959 11.8078 131.032 11.6278 131.032 11.6278L130.067 11.9809C130.067 11.9809 130.288 12.3 131.079 12.2491C131.87 12.1982 132.865 11.8553 132.865 11.8553L131.663 12.3781C131.663 12.3781 131.762 12.5954 132.929 12.5241C134.097 12.4528 134.752 11.8621 134.997 11.6075C135.53 11.0541 136.11 11.1661 136.11 11.1661C136.11 11.1661 135.764 11.2374 135.496 11.4173C135.363 11.5056 135.255 11.5633 134.858 12.0013C134.647 12.2355 134.416 12.5512 134.416 12.5512L134.858 12.5988C134.858 12.5988 134.494 12.6599 134.05 13.0435C133.788 13.2676 133.479 13.6308 133.479 13.6308L134.046 13.8175L133.856 13.9737C133.856 13.9737 133.622 13.9533 133.333 14.0144C133.045 14.0755 132.882 14.2724 132.882 14.2724C132.882 14.2724 133.228 14.2079 133.245 14.3607C133.262 14.5135 132.844 14.8054 132.522 14.8563C132.203 14.9073 132.104 14.8156 132.104 14.8156C132.104 14.8156 132.152 15.206 132.678 15.2162C133.204 15.2264 133.486 14.8835 133.778 14.69C134.07 14.4965 134.586 14.0416 134.586 14.0416C134.586 14.0416 134.718 14.0993 134.875 14.0314C135.163 13.9058 135.907 13.2336 136.202 13.0061C136.497 12.7787 137.248 11.9062 137.248 11.9062C137.248 11.9062 137.265 12.1982 136.901 12.5784C136.684 12.8058 136.654 12.8602 136.654 12.8602L136.986 12.8737C136.986 12.8737 136.606 13.0333 136.389 13.1929C136.141 13.3762 135.812 13.7768 135.812 13.7768L136.25 13.9295L136.11 14.045C136.11 14.045 135.829 13.9805 135.611 14.0755C135.445 14.1468 135.357 14.2419 135.357 14.2419C135.357 14.2419 135.543 14.2351 135.615 14.2826C135.75 14.3777 135.526 14.5882 135.289 14.6968C134.953 14.853 134.674 14.7952 134.674 14.7952C134.674 14.7952 134.993 15.3826 135.652 14.9412C135.992 14.7138 136.783 14.0518 136.783 14.0518C136.783 14.0518 136.888 14.1027 137.085 14.0314C137.282 13.9601 137.923 13.4237 138.293 13.0571C138.612 12.7413 139.183 11.9741 140.021 11.6923C140.564 11.509 141.539 11.1288 142.201 10.864C143.324 10.4159 144.105 9.73689 144.105 9.73689C144.105 9.73689 143.912 9.75726 143.766 9.7335L143.762 9.74368Z" fill="#393C34"/>
<path d="M139.081 6.55935C139.081 6.55935 140.031 7.3198 140.666 7.61515C141.284 7.90371 142 8.31449 142.554 8.22962C142.917 8.1753 143.847 7.54386 144.788 5.83963C145.894 3.84006 145.324 2.44477 145.324 2.44477C145.324 2.44477 145.195 2.49909 145.001 2.65185C144.883 2.74352 144.764 2.86913 144.764 2.86913C144.764 2.86913 144.621 2.12226 143.993 1.24978C143.348 0.356926 142.608 -0.00292969 142.608 -0.00292969C142.608 -0.00292969 142.36 0.401059 142.421 1.02911C142.482 1.66395 142.642 1.96609 142.642 1.96609C142.642 1.96609 142.347 1.79635 142.034 1.76919C141.617 1.73185 141.372 1.74543 141.372 1.74543C141.372 1.74543 141.321 2.36329 141.454 2.80123C141.569 3.18145 141.817 3.42249 141.817 3.42249C141.817 3.42249 141.63 3.38854 141.257 3.39873C140.924 3.40552 140.534 3.45983 140.534 3.45983C140.534 3.45983 140.537 3.74161 140.721 4.11504C140.867 4.4104 141.237 4.83815 141.237 4.83815C141.237 4.83815 140.928 4.80081 140.469 4.82796C139.909 4.86191 139.526 5.15387 139.526 5.15387C139.526 5.15387 139.729 5.43225 140.014 5.72421C140.188 5.90074 140.564 6.17912 140.564 6.17912C140.564 6.17912 140.038 6.21307 139.746 6.28776C139.417 6.37263 139.084 6.55935 139.084 6.55935H139.081Z" fill="#393C34"/>
<path d="M146.529 8.18895C146.363 7.91397 145.983 7.92415 145.983 7.92415H145.517C145.517 7.92415 145.297 7.66614 144.777 7.73404C144.336 7.79175 144.034 8.01921 143.647 8.20932C143.318 8.37227 142.9 8.41301 142.9 8.41301C142.9 8.41301 143.199 8.4843 143.416 8.48091C143.62 8.48091 143.966 8.46394 143.966 8.46394C143.966 8.46394 143.908 8.62689 143.823 8.75589C143.725 8.91206 143.528 9.11915 143.528 9.11915C143.528 9.11915 143.691 9.15309 143.878 9.11915C144.068 9.08859 144.251 9.05125 144.251 9.05125C144.251 9.05125 144.18 9.22099 144.105 9.32284C144 9.47221 143.864 9.57745 143.864 9.57745C143.864 9.57745 144.143 9.62837 144.489 9.47221C144.709 9.37376 144.703 9.39752 144.964 9.24475C145.249 9.07841 145.494 8.88829 145.602 8.81361C145.711 8.73892 145.955 8.60313 146.173 8.58276C146.468 8.5556 146.638 8.82379 146.638 8.82379C146.638 8.82379 146.733 8.51146 146.533 8.17877L146.529 8.18895Z" fill="#393C34"/>
</g>
<defs>
<clipPath id="clip0_379_987">
<rect width="146.658" height="32" fill="white"/>
</clipPath>
</defs>
</svg>
